<svg width="989" height="1048" viewBox="0 0 989 1048" fill="none" xmlns="http://www.w3.org/2000/svg">
<g clip-path="url(#clip0)">
<path opacity="0.5" d="M989 1266.15C989 1232.72 982.418 1199.62 969.629 1168.74C956.84 1137.85 938.096 1109.79 914.465 1086.15C890.835 1062.52 862.782 1043.76 831.907 1030.97C801.032 1018.18 767.941 1011.59 734.523 1011.59C701.104 1011.59 668.013 1018.18 637.139 1030.97C606.264 1043.76 578.211 1062.52 554.58 1086.15C530.95 1109.79 512.205 1137.85 499.417 1168.74C486.628 1199.62 480.046 1232.72 480.046 1266.15L734.523 1266.15H989Z" fill="#1A202C"/>
<path opacity="0.1" d="M989 757.037C989 723.608 982.418 690.506 969.629 659.622C956.84 628.738 938.096 600.675 914.465 577.037C890.835 553.4 862.782 534.649 831.907 521.856C801.032 509.064 767.941 502.479 734.523 502.479C701.104 502.479 668.013 509.064 637.139 521.856C606.264 534.649 578.211 553.4 554.58 577.037C530.95 600.675 512.205 628.738 499.417 659.622C486.628 690.506 480.046 723.608 480.046 757.037L734.523 757.037H989Z" fill="#718096"/>
<path opacity="0.1" d="M989 502.479C989 469.05 982.418 435.949 969.629 405.064C956.84 374.18 938.096 346.118 914.465 322.48C890.835 298.842 862.782 280.091 831.907 267.299C801.033 254.506 767.941 247.922 734.523 247.922L734.523 502.479H989Z" fill="#718096"/>
<path opacity="0.2" d="M480.046 757.037C480.046 790.466 486.628 823.568 499.417 854.452C512.205 885.336 530.95 913.399 554.58 937.037C578.211 960.674 606.264 979.425 637.139 992.218C668.013 1005.01 701.105 1011.59 734.523 1011.59C767.941 1011.59 801.033 1005.01 831.907 992.218C862.782 979.425 890.835 960.674 914.465 937.036C938.096 913.399 956.84 885.336 969.629 854.452C982.418 823.568 989 790.466 989 757.037L734.523 757.037L480.046 757.037Z" fill="#1A202C"/>
<path opacity="0.2" d="M17.6246 -11C17.6246 22.429 24.2069 55.5307 36.9955 86.4151C49.7842 117.299 68.5289 145.362 92.1593 169C115.79 192.637 143.843 211.388 174.718 224.181C205.592 236.973 238.683 243.558 272.102 243.558C305.52 243.558 338.611 236.973 369.486 224.181C400.36 211.388 428.414 192.637 452.044 168.999C475.675 145.362 494.419 117.299 507.208 86.415C519.997 55.5306 526.579 22.429 526.579 -11L272.102 -11L17.6246 -11Z" fill="#1A202C"/>
<path opacity="0.1" d="M482.954 757.037C482.954 790.466 476.372 823.568 463.583 854.452C450.795 885.336 432.05 913.399 408.42 937.036C384.789 960.674 356.736 979.425 325.861 992.218C294.987 1005.01 261.895 1011.59 228.477 1011.59L228.477 757.037H482.954Z" fill="#718096"/>
<path opacity="0.5" d="M494.587 1132.33C494.587 1207.04 434.04 1267.61 359.351 1267.61C284.662 1267.61 224.115 1207.04 224.115 1132.33C224.115 1057.62 284.662 997.048 359.351 997.048C434.04 997.048 494.587 1057.62 494.587 1132.33Z" fill="#1A202C"/>
<path opacity="0.5" d="M733.069 382.474C733.069 459.195 670.894 521.389 594.197 521.389C517.5 521.389 455.325 459.195 455.325 382.474C455.325 305.752 517.5 243.558 594.197 243.558C670.894 243.558 733.069 305.752 733.069 382.474Z" fill="#1A202C"/>
<path opacity="0.1" d="M228.477 759.946C195.059 759.946 161.967 753.362 131.093 740.569C100.218 727.776 72.165 709.026 48.5346 685.388C24.9042 661.75 6.15954 633.688 -6.62912 602.803C-19.4178 571.919 -26 538.817 -26 505.388L228.477 505.388L228.477 759.946Z" fill="#718096"/>
<path opacity="0.1" d="M228.477 502.479C195.059 502.479 161.967 495.895 131.093 483.102C100.218 470.309 72.165 451.559 48.5346 427.921C24.9042 404.283 6.15954 376.221 -6.62912 345.336C-19.4178 314.452 -26 281.35 -26 247.921L228.477 247.922L228.477 502.479Z" fill="#718096"/>
<path opacity="0.2" d="M228.477 1266.15C195.059 1266.15 161.967 1259.57 131.093 1246.78C100.218 1233.98 72.165 1215.23 48.5346 1191.59C24.9042 1167.96 6.15954 1139.89 -6.62912 1109.01C-19.4178 1078.13 -26 1045.02 -26 1011.59L228.477 1011.59L228.477 1266.15Z" fill="#1A202C"/>
<path opacity="0.5" d="M482.954 506.843C482.954 540.272 476.372 573.374 463.583 604.258C450.795 635.142 432.05 663.205 408.42 686.843C384.789 710.48 356.736 729.231 325.861 742.024C294.987 754.816 261.895 761.401 228.477 761.401L228.477 506.843H482.954Z" fill="#1A202C"/>
<path opacity="0.1" d="M478.592 247.921C478.592 214.492 485.174 181.391 497.963 150.506C510.751 119.622 529.496 91.5598 553.126 67.922C576.757 44.2841 604.81 25.5335 635.685 12.7408C666.559 -0.051898 699.651 -6.6362 733.069 -6.63617L733.069 247.922L478.592 247.921Z" fill="#1A202C"/>
</g>
<defs>
<clipPath id="clip0">
<rect width="1015" height="1277.15" fill="white" transform="translate(-26 -11)"/>
</clipPath>
</defs>
</svg>
